<?xml version="1.0" encoding="UTF-8"?>
<svg enable-background="new 0 0 512.928 171.468" viewBox="0 0 512.928 171.468" xmlns="http://www.w3.org/2000/svg">
 <path d="m46.116,55.224h43.74c3.96,2.484 7.344,5.076 10.008,8.208 2.628,2.988 4.068,5.256 5.976,10.008 1.908,4.716 4.788,9.828 5.184,18.252 .216,8.424-.324,21.06-3.708,31.644-3.456,10.404-9.108,20.521-16.956,30.636-4.356.9-10.44,1.332-18.396,1.297-8.1-.108-17.568-.54-29.232-1.584-4.104-1.801-7.704-4.608-10.656-8.425-3.024-3.924-5.436-8.388-7.236-14.508-1.908-6.156-4.068-13.248-3.708-21.96 .18-8.928 1.692-21.492 5.796-30.492 4.212-9 10.512-16.596 19.188-23.076z" fill="#212121" fill-rule="evenodd" stroke="#000" stroke-miterlimit="10" stroke-width=".036"/>
 <path d="m61.308,111.061c-.504-3.528-.468-6.948-.18-10.801 .324-3.888 1.08-8.424 2.124-11.951 1.008-3.528 1.692-6.084 3.708-9.037 1.908-3.096 7.452-10.008 7.74-9.216 .108.72-5.004,9.684-6.444,13.572-1.476,3.744-1.584,5.185-2.124,9.181-.54,3.924-1.044,10.439-1.116,14.544-.252,4.104-.072,7.235.144,9.827-.828-2.556-1.368-3.995-1.764-4.176-.468-.288-.36,2.988-.648,2.736-.396-.396-.828-1.908-1.44-4.679z" fill="#fff" fill-rule="evenodd" stroke="#000" stroke-miterlimit="10" stroke-width=".036"/>
 <path d="m99.216,73.944c1.512.972 2.736,3.996 3.888,6.3 1.152,2.268 2.34,4.32 3.06,7.236 .72,2.951 1.476,9.107 1.296,10.188-.18,1.008-1.44-1.836-2.412-4.032-.972-2.231-2.088-6.3-3.384-9.216-1.332-2.88-3.924-5.436-4.536-8.064s.612-3.384 2.088-2.412z" fill="#fff" fill-rule="evenodd" stroke="#000" stroke-miterlimit="10" stroke-width=".036"/>
 <path d="m77.76,78.12c-2.7,2.628-5.328,7.2-6.768,11.628-1.512,4.392-2.16,9.288-2.088,14.544-.072,5.185.576,11.664 2.088,16.128 1.476,4.393 3.888,8.496 7.092,9.685 3.168,1.008 8.496.792 11.952-3.564 3.42-4.572 7.092-15.768 8.388-22.896 1.152-7.164.576-14.4-1.296-19.369-2.016-5.04-7.128-9.324-10.332-10.332-3.42-1.008-6.3,1.404-9.036,4.176z" fill-rule="evenodd" stroke="#000" stroke-miterlimit="10" stroke-width=".036"/>
 <path d="m28.368,137.052c.468,2.232 1.872,4.608 4.212,7.272 2.376,2.592 5.508,5.436 9.828,8.532 5.616-.217 10.836-.108 15.66.18 4.752.288 8.136,1.368 13.068,1.584 4.824.108 10.152-.108 15.984-.792 5.22-4.428 8.244-7.92 9.216-10.476 .828-2.7-.36-5.148-3.564-5.005-3.348.217-11.124,5.868-15.984,6.265-4.968.216-9.504-1.477-13.068-4.681-3.564-3.348-5.94-14.075-8.388-14.831-2.664-.757-3.312,12.348-6.948,10.151-3.672-2.412-11.304-20.052-14.832-24.048-3.636-3.924-6.768-2.988-6.48.324 .252,3.24 7.956,14.292 8.244,18.72 .144,4.249-2.124,6.517-6.948,6.805z" fill-rule="evenodd" stroke="#000" stroke-miterlimit="10" stroke-width=".036"/>
 <path d="m75.348,66.672c1.764-1.476 3.816-2.808 6.3-3.708 2.412-1.044 5.4-2.988 8.388-2.088 3.024.828 6.732,5.616 9.18,7.56 2.232,1.908 3.96,4.5 4.212,4.032 .072-.612-1.908-5.22-3.564-7.416-1.836-2.34-4.968-4.752-6.912-5.976-1.98-1.188-3.6-1.8-4.86-1.44-1.692-.468-3.528.072-5.652,1.62s-4.536,3.888-7.092,7.416z" fill-rule="evenodd" stroke="#000" stroke-miterlimit="10" stroke-width=".036"/>
 <path d="m101.016,106.704c-3.24-.864-6.948-2.016-11.268-3.312-4.356-1.404-9.216-2.952-14.58-4.788-.54-.685-.576-1.152-.252-1.692 .252-.576 1.368-1.26 2.088-1.368 .648-.144 1.26.108 1.836.756l24.48,7.345c-.756,1.007-1.512,2.015-2.304,3.059z" fill="#808080" fill-rule="evenodd"/>
 <path d="m103.068,98.964c-2.808-.216-5.616-.324-8.568-.611-2.988-.288-6.048-.612-9.18-.973-.036-.936.072-1.584.612-1.943 .396-.36 1.224-.576 2.196-.36l18.504,1.692c-1.188.719-2.376,1.439-3.564,2.195z" fill="#808080" fill-rule="evenodd"/>
 <path d="m91.944,109.368c-2.052.792-4.176,1.656-6.228,2.592-2.196.9-4.176,1.872-6.372,2.916-.756.54-1.044,1.08-.864,1.477 .072.396.648.72 1.584.972l12.132-5.364c-.072-.865-.144-1.729-.252-2.593z" fill="#808080" fill-rule="evenodd"/>
 <path d="m4.32,139.86c-1.368-.504-2.304-1.152-2.952-1.944-.684-.864-.828-2.016-.972-3.06-.324-1.225-.648-2.232-.396-3.564 .216-1.368.972-2.988 1.98-4.032 .9-1.08 2.16-1.584 3.924-2.34 1.728-.899 3.924-1.836 6.732-2.808 2.736-1.116 7.056-2.269 9.9-3.313 2.772-1.008 4.644-1.979 6.732-2.916 1.98-1.115 3.888-2.268 5.148-3.456 1.152-1.296 1.08-1.403 1.728-3.779 .576-2.484 1.188-5.94 1.836-10.656l-.756,16.271-21.312,13.357c-3.852,4.068-7.704,8.136-11.592,12.24z" fill="#fb0f0c" fill-rule="evenodd"/>
 <path d="m38.808,128.34c0,0 .324-4.428.504-9.396 .18-5.076.864-16.776.612-20.448-.288-3.636-1.62-3.312-2.196-1.368-.576,1.98-.432,9.9-1.224,12.996-.828,3.024-1.224,3.492-3.564,5.148-2.376,1.62-6.84,3.204-10.512,4.644-3.708,1.404-8.064,2.376-11.376,3.78-3.348,1.439-6.84,2.52-8.46,4.644-1.62,2.16-1.656,6.084-1.116,8.101 .576,1.943.972,3.708 4.428,3.672 3.456-.072 10.62-2.088 16.164-4.032 5.508-2.017 16.74-7.741 16.74-7.741z" fill="#d60000" fill-rule="evenodd"/>
 <path d="m7.344,131.185c2.628-.612 5.4-1.584 8.46-3.061 3.06-1.512 6.984-4.355 9.684-5.76 2.484-1.548 3.888-2.304 5.76-2.952 1.836-.612 2.268-.936 5.616-.972 3.276-.181 8.892-.181 14.076,0 5.184.071 10.476.504 16.416.72 5.76.18 11.7.216 17.964.252l-13.824,15.66c-6.768.107-13.716.072-21.42-.108-7.74-.252-18.396-.72-24.336-.972-5.976-.324-8.172-.576-10.908-.612s-4.392.324-5.508.108c-1.224-.396-1.98-1.116-1.98-2.303z" fill="#212121" fill-rule="evenodd"/>
 <path d="m72.36,134.604c-5.112,0-10.656-.181-16.776-.252-6.3-.181-13.608-.433-19.836-.612-6.3-.216-12.528-.648-16.884-.72-4.428-.217-6.912-.252-8.82-.252-1.98-.036-2.052,0-2.304.252-.36.107-.72.792.72,1.08 1.404.216 3.924.107 7.848.359 3.96.216 9.108.504 15.3.864 6.048.18 13.86.432 20.664.612 6.66.144 12.888.216 19.116.359 .324-.538.648-1.114.972-1.69z" fill="#404040" fill-rule="evenodd"/>
 <path d="m229.716,71.028-7.956,71.388c-19.476,1.477-35.748,2.772-49.788,4.032-14.004,1.296-23.292,2.483-33.552,3.276-10.368.468-17.46.684-27.792.504-10.476-.252-26.64-.792-33.912-1.225s-10.404-.756-9.396-1.116c11.952-12.42 25.632-23.544 41.472-33.768 15.876-10.26 35.028-20.52 52.884-27.288 17.784-6.84 41.148-10.872 52.74-13.464 11.412-2.627 16.38-3.455 15.3-2.339z" fill="#d60000" fill-rule="evenodd"/>
 <path d="m248.76,67.572c-7.812,1.764-15.3,3.42-22.896,5.4-7.74,1.872-14.04,3.456-22.5,5.868-8.496,2.232-18.972,5.436-27.684,8.1-8.82,2.592-15.912,4.176-24.48,7.812-8.604,3.672-18.9,9.072-26.604,13.968-7.668,4.717-12.528,8.965-19.584,14.688-7.236,5.688-18.216,15.479-23.22,19.512-5.112,3.924-4.248,3.24-6.84,4.176-2.628.828-7.092,1.477-8.676.973-1.692-.648-1.692-2.124-.972-4.429 .756-2.447 2.232-5.399 5.256-9.539 2.844-4.248 8.136-10.692 11.988-15.301 3.708-4.607 6.012-7.812 10.512-11.987 4.464-4.32 9.9-8.82 16.164-13.356 6.228-4.608 13.104-9.252 21.06-14.076-2.7-1.188-3.996-2.412-4.032-3.528 .036-1.188 1.476-2.16 3.924-3.312 2.34-1.332 6.12-2.916 9.792-3.924 3.492-1.188 6.768-1.872 11.376-2.196 4.644-.324 9.72-.108 15.912.504 .648-1.08 2.52-1.728 5.616-2.088 2.988-.36 5.76-.324 12.78.108 7.092.36 18.432,1.476 29.16,1.98 10.584.395 21.708.611 33.948.647z" fill="#fb0f0c" fill-rule="evenodd"/>
 <path d="m187.236,86.508c3.528,3.313 7.092,6.588 10.836,9.973 3.672,3.384 7.488,6.588 11.448,10.008-11.556.612-21.492,1.188-29.952,1.728-8.532.469-15.336.9-20.7,1.296-1.152.576-1.692,1.116-1.764,1.765-.072.611.36,1.332 1.296,2.016 15.12-.899 26.964-1.764 36.36-2.304 9.324-.576 15.516-1.116 19.116-1.332l1.008-4.464c-5.004-3.816-9.36-7.2-13.464-10.44-4.14-3.275-7.632-6.12-10.872-8.82-1.224-.684-2.088-.972-2.592-.864-.54.034-.828.61-.72,1.438z" fill="#808080" fill-rule="evenodd"/>
 <path d="m305.64,25.128 52.813-19.764 .288,9.432 114.155,7.092 29.484-8.568-.576,45.144c-.863-5.76-2.483-10.476-5.004-14.148-2.664-3.744-4.716-6.3-10.044-7.956-5.292-1.692-12.42-2.196-21.528-1.8l-29.483,9.468-26.568-1.188 9.433,41.292-25.057-.576 .576-39.528c-16.056-1.332-29.736-2.268-41.58-2.952-11.916-.684-21.42-1.08-29.196-1.188-5.905-4.896-11.809-9.828-17.713-14.76z" fill="#616161" fill-rule="evenodd"/>
 <path d="m359.32 4.788 0.611 9.144 114.44 7.056-9.72 7.092-108.86-5.292-25.956 12.96-17.101-13.86 46.586-17.1z" fill="#212121" fill-rule="evenodd"/>
 <path d="m401.8 83.232-0.864-38.052-5.04-0.864-1.476 40.392 7.38-1.476z" fill="#212121" fill-rule="evenodd"/>
 <path d="m467.604,34.272-1.477-9.72c.288-.72 2.592-1.8 6.768-3.24 4.248-1.512 13.032-4.212 18.288-5.616 5.04-1.476 9.072-2.556 12.097-3.24l-.576,46.908c-1.044-3.024-2.088-5.976-3.564-8.856-1.403-3.024-2.699-6.156-5.004-8.568-2.448-2.412-5.076-4.32-9.432-5.58-4.464-1.296-10.116-1.944-17.1-2.088z" fill="#fb0f0c" fill-rule="evenodd"/>
 <path d="m447.516,30.816h41.4c5.399,1.188 9.792,3.6 13.32,7.38 3.456,3.744 5.832,8.568 7.668,14.904 1.691,6.228 2.844,14.04 3.023,22.464 .216,8.46-.18,19.152-2.016,27.36-2.052,7.992-6.265,15.48-10.008,20.521-3.853,4.788-7.021,7.128-12.42,8.964-5.616,1.764-12.276,2.016-19.98,2.16-7.632.144-16.128-.433-25.632-1.44-6.444-6.624-11.269-13.248-14.616-20.412-3.384-7.2-4.716-15.048-5.508-22.14-.9-7.272-.288-14.544.432-20.412 .648-5.868 2.053-9.9 3.78-14.472 1.656-4.68 2.844-9.216 6.336-13.32 3.493-4.249 8.101-7.957 14.221-11.557z" fill="#212121" fill-rule="evenodd"/>
 <path d="m480.06,122.256c-.107.324-5.58-4.212-7.668-7.092-2.088-2.808-3.527-5.616-4.752-9.684-1.367-4.284-2.664-10.044-3.06-15.049-.504-4.932-.504-9.755.144-14.616 .648-5.04 1.944-11.268 3.492-15.228 1.512-4.104 4.212-7.776 5.04-8.532 .576-.684-1.332,3.816-1.151,4.212 .144.252 2.663-4.32 2.304-2.628-.54,1.584-3.276,7.812-4.464,12.456-1.261,4.572-1.98,9.684-2.305,15.192s-.035,12.42.721,17.676c.72,5.112 1.871,9.181 3.888,13.176 1.979,3.853 7.631,9.541 7.811,10.117z" fill="#fff" fill-rule="evenodd"/>
 <path d="m495.432,42.948c.54,1.188 4.752,5.292 6.66,9.108 1.729,3.672 3.024,7.236 3.744,13.176 .612,5.976 1.26,14.328.288,21.997-1.044,7.56-5.76,18.899-6.516,22.896-.9,3.816 1.584-1.224 1.619,0-.035,1.08-2.016,7.236-1.476,6.66 .432-.792 3.132-6.12 4.644-10.584 1.477-4.572 3.385-9.828 4.213-15.912 .72-6.192.575-14.436.144-20.412-.647-6.12-1.764-11.196-3.348-15.372-1.584-4.284-4.356-7.416-5.94-9.396-1.728-1.981-4.5-3.349-4.032-2.161z" fill="#fff" fill-rule="evenodd"/>
 <path d="m474.12,69.84c-.072-.972.324-3.672 1.188-5.616 .828-2.052 2.053-4.32 3.528-6.12 1.332-1.872 2.88-3.528 4.5-4.428 1.512-1.008 3.204-1.008 4.932-.972 1.62,0 3.168-.072 4.933.9 1.728.864 3.852,2.196 5.399,4.392 1.44,2.052 2.809,4.464 3.42,8.352 .433,3.852-.035,13.14-.288,14.652-.18,1.296-.468-3.42-1.008-6.228-.72-2.916-.899-8.1-2.916-10.836-2.124-2.7-6.084-5.256-9.252-5.328-3.275-.216-7.451,2.556-9.611,4.428-2.196,1.872-2.557,5.4-3.313,6.696-.864,1.08-1.512.972-1.512.108z" fill-rule="evenodd"/>
 <path d="m495.18,108.072c-1.08,1.368-2.412,2.736-3.996,3.708-1.62.864-3.672,1.404-5.615,1.332-2.196-.216-4.464-.828-6.517-2.412-2.052-1.62-4.14-3.888-5.436-7.344-1.404-3.78-2.664-9.433-2.809-14.04-.288-4.572 1.368-12.276 1.513-12.853 .071-.54-1.188,5.292-.721,9.432 .396,4.032 1.477,10.62 3.24,14.76 1.8,4.14 4.392,8.028 7.092,9.72 2.521,1.404 6.156.288 8.137-.288 1.8-.468 1.943-1.332 3.204-2.592 1.26-1.44 3.491-5.328 4.319-5.832 .648-.648.288,1.188-.107,2.304-.505,1.117-1.224,2.665-2.304,4.105z" fill-rule="evenodd"/>
 <path d="m499.896,97.344c-1.08,2.952-2.447,5.688-3.815,7.813-1.44,2.16-2.772,3.996-4.393,5.22-1.655,1.152-3.42,1.729-5.436,1.729-2.088-.072-4.536-.792-6.516-2.305-2.017-1.655-4.068-4.464-5.328-7.452-1.368-3.168-2.269-7.128-2.7-10.907-.54-3.889-.576-7.74-.108-11.556 .469-3.996 1.44-7.812 2.916-11.448 1.513-3.672 3.996-7.632 5.94-9.936 1.764-2.304 3.348-3.06 4.896-3.816 1.44-.936 2.484-1.296 4.104-1.08 1.584.216 3.348.864 5.148,2.484 1.655,1.548 3.743,3.636 5.004,6.84 1.188,3.132 1.728,7.776 2.195,11.844 .324,4.068.36,8.244.108,12.132-.359,3.85-1.079,7.198-2.015,10.438z" fill="#808080" fill-rule="evenodd"/>
 <path d="m483.264,107.893c1.692.359 3.313.18 5.004-.828 1.584-1.08 3.42-2.557 4.824-5.004 1.332-2.484 2.521-5.688 3.42-9.612 .756-4.068 1.404-9.504 1.404-14.076-.108-4.752-1.044-10.224-1.836-13.356-.864-3.096-1.944-3.888-3.384-5.004-1.656-1.224-4.248-2.016-5.832-1.8-1.62.144-2.809,1.08-3.708,2.808 1.728,1.116 2.916,2.664 4.104,4.5 1.08,1.8 1.8,3.96 2.304,6.624 .505,2.664.505,5.436.396,9.144-.252,3.528-.864,9.432-1.692,12.456-.899,2.952-1.728,3.636-3.312,5.508-1.764,1.872-5.688,5.04-6.229,5.328-.468-.072 2.377-3.06 3.528-4.536 1.08-1.476 2.16-1.836 3.096-3.708 .9-1.908 2.053-4.752 2.628-7.416 .505-2.771.469-6.012.576-8.748 .036-2.772.252-5.508-.18-7.812-.54-2.448-1.332-4.752-2.52-6.516-1.261-1.872-2.736-3.384-4.717-4.536 1.332-1.944 2.557-3.276 4.212-3.996 1.44-.828 3.349-1.044 5.04-.504 1.765.54 3.637,1.872 5.221,3.996 1.476,2.16 2.735,4.932 3.492,8.46 .575,3.456.647,7.884.504,11.916-.181,3.924-.793,8.1-1.404,11.556-.685,3.24-1.62,6.084-2.809,8.532-1.367,2.411-3.636,4.644-5.004,6.012-1.439,1.26-2.556,1.8-3.636,1.908-1.222.071-2.338-.361-3.49-1.296z" fill="#616161" fill-rule="evenodd"/>
 <path d="m480.132,73.548 .72-9.504c.685-.144 1.188.18 1.908.972 .685.792 1.188,1.836 1.908,3.528l-4.032,5.436c-.144-.144-.324-.288-.504-.432z" fill="#212121" fill-rule="evenodd"/>
 <path d="m481.536,74.556 3.815-4.5c.469.468.757,1.116 1.009,1.8 .18.684.216,1.404.107,2.304l-3.636,3.816c.036-.864-.108-1.512-.288-2.088-.251-.612-.539-1.008-1.007-1.332z" fill="#212121" fill-rule="evenodd"/>
 <path d="m483.048,79.596 3.6-3.708c.36,1.512.433,3.096.505,4.608-.072,1.476-.145,3.024-.505,4.5l-3.815-2.7c.071-.9.143-1.8.215-2.7z" fill="#212121" fill-rule="evenodd"/>
 <path d="m482.652,83.304c-.108.684-.288,1.296-.396,1.98-.18.576-.432,1.188-.612,1.836l4.104,4.212c.144-.828.36-1.584.504-2.412 .144-.899.252-1.728.324-2.628-1.296-.972-2.592-1.98-3.924-2.988z" fill="#212121" fill-rule="evenodd"/>
 <path d="m481.14,88.596 3.528,3.744c-.396,1.225-.864,2.16-1.404,3.204-.647.937-1.188,1.8-2.016,2.592l-1.62-8.208c.504-.432 1.008-.864 1.512-1.332z" fill="#212121" fill-rule="evenodd"/>
 <path d="m478.548,90.612c.108,1.656.324,2.988.504,4.428 .18,1.332.324,2.484.576,3.6-.468.505-1.08.937-1.692,1.297-.611.252-1.367.468-2.124.504l-1.691-5.616 1.008-3.996c1.044.396 1.8.648 2.412.612 .575-.037.863-.361 1.007-.829z" fill="#212121" fill-rule="evenodd"/>
 <path d="m479.052,73.548 .18-8.604c-.539-.036-1.115.144-1.584.396-.504.252-.899.684-1.332,1.296l-1.476,3.6c.324.792.576,1.548.9,2.412 .288.864.504,1.692.792,2.628 .504-.36.972-.792 1.403-1.008 .361-.36.829-.504 1.117-.72z" fill="#212121" fill-rule="evenodd"/>
 <path d="m476.03 75.384-1.729-2.808-0.792 4.392 2.521-1.584z" fill="#212121" fill-rule="evenodd"/>
 <path d="m476.64,78.984c-.72.9-1.691,2.232-1.8,3.708-.18,1.368.396,3.852 1.188,4.537 .756.504 2.52-.217 3.491-1.333 .828-1.404 1.692-4.392 1.62-5.904-.288-1.584-1.979-2.412-2.699-2.628-.793-.18-1.26.684-1.8,1.62z" fill="#212121" fill-rule="evenodd"/>
 <path d="m477.432,80.676c-.54.36-.936,2.124-.899,2.916 .036.72.792,1.548 1.296,1.224 .432-.54 1.403-2.916 1.403-3.636-.18-.72-1.332-.936-1.8-.504z" fill="#808080" fill-rule="evenodd"/>
 <path d="m430.2,112.248c.576,1.729 1.872,4.14 4.032,7.524 2.123,3.275 5.075,7.38 8.855,12.312l30.816.576c-3.96-2.736-7.093-6.12-9.396-10.296-2.376-4.176-3.6-8.353-4.644-14.76-1.116-6.624-1.368-21.853-2.16-24.012-.973-2.088-1.944,10.512-3.349,11.412-1.512.721-4.067-8.531-5.327-6.372-1.332,2.232-1.044,16.849-2.341,19.404-1.403,2.304-4.355-5.58-5.796-5.328-1.476.252-1.188,4.968-2.88,6.66-1.798,1.548-4.354,2.556-7.81,2.88z" fill-rule="evenodd"/>
 <path d="m465.516,50.184c1.62-3.096 3.889-5.76 6.66-8.424 2.88-2.88 6.876-7.02 10.44-8.388 3.456-1.404 6.876-1.26 10.115-.144 3.097.972 9,5.724 8.677,6.084-.433.144-7.236-4.32-10.98-4.356-3.815,0-7.632,1.224-11.735,4.644-4.356,3.312-10.513,10.224-13.465,15.192-3.06,4.932-3.636,12.996-4.212,14.076-.575.792-.288-5.256.576-8.424 .684-3.24 2.124-7.128 3.924-10.26z" fill-rule="evenodd"/>
 <path d="m194.724,68.184c3.996-2.412 10.188-5.94 18.576-10.584 8.46-4.788 18.756-10.404 31.572-17.424 .072-3.456 1.152-6.012 3.528-7.668 2.34-1.692 5.688-2.484 10.333-2.376l1.476-3.528c-2.664.504-4.824.504-6.48,0-1.8-.504-3.348-.936-3.528-3.24-.216-2.52 1.728-8.064 2.628-11.196 .72-3.168 1.332-5.904 2.376-7.668 1.044-1.908.576-2.952 4.14-3.564 3.672-.756 10.152-1.548 17.101-.576 6.768.828 14.436,2.664 23.292,5.904 8.892,3.168 20.483,7.92 29.52,13.284 8.856,5.256 16.668,12.78 23.58,18.288 6.876,5.328 12.312,9.576 17.424,14.148 4.896,4.572 7.128,9.036 12.672,12.96 5.544,3.708 10.332,7.236 20.628,9.756 10.261,2.448 23.544,4.068 40.429,5.004l-.291,43.956-122.437,20.952c-5.724-1.513-12.708-2.7-21.527-3.853s-19.044-2.088-30.96-2.951l-2.089-68.148c-19.439-.36-34.74-.648-46.872-.864-12.059-.216-20.375-.468-25.091-.612zm215.928,50.76 .899-13.284 2.952-7.668-27.432,2.664-.612,15.624 24.193,2.664z" fill="#fb0f0c" fill-rule="evenodd"/>
 <path d="m210.348,66.744c2.448-1.008 6.408-3.096 12.42-6.804 5.976-3.672 13.464-8.64 23.004-15.048 .288-3.132.828-5.544 1.764-7.38 .828-1.836 1.728-2.592 3.528-3.528 1.656-1.08 4.716-2.808 6.804-2.664 2.052.036 4.14,1.908 5.58,3.24 1.403,1.224 2.195,2.7 2.664,4.428l7.956,5.616-.288,13.284c-1.98.936-3.96,2.16-6.48,3.816-2.448,1.584-5.256,3.6-8.28,5.904l-48.672-.864z" fill="#212121" fill-rule="evenodd"/>
 <path d="m253.728,15.12c.72-2.484 1.548-5.22 2.34-7.092 .648-1.944.792-3.924 1.8-4.14 .972-.432 2.52-.108 3.815,2.376 1.188,2.52 2.593,9.612 2.952,12.672 .145,2.88-.54,3.852-1.764,5.004-1.404,1.08-4.068,1.62-5.904,1.476-1.944-.288-4.392-1.224-5.004-2.952-.611-1.836 1.045-4.932 1.765-7.344z" fill="#212121" fill-rule="evenodd"/>
 <path d="m266.4,28.08c3.888-.648 6.983-.936 9.432-.864 2.376,0 4.104.432 5.04,1.152l18.288,11.232-28.044-.9c-.181-2.556-.721-4.716-1.477-6.48-.899-1.836-1.799-3.168-3.239-4.14z" fill="#d60000" fill-rule="evenodd"/>
 <path d="m280.26,44.892 43.38-2.34c-9.756.18-18.18,1.26-25.956,3.528-7.739,2.196-14.292,5.436-20.052,9.72 .864-3.636 1.728-7.272 2.628-10.908z" fill="#d60000" fill-rule="evenodd"/>
 <path d="m299.448,71.748c10.584-2.34 20.52-4.356 30.384-6.192 9.756-1.8 19.044-3.42 28.008-4.716-1.728-1.98-3.348-3.852-5.004-5.904-1.692-2.088-3.168-4.104-4.716-6.192l14.76-.612c2.448,1.368 4.464,3.096 6.48,5.328 1.872,2.088 2.195,5.148 5.004,7.668 2.808,2.484 6.516,4.896 11.52,7.38-3.924.036-8.604.468-14.184,1.152-5.688.648-18.181,4.176-19.152,2.952-.792-1.296 3.6-4.68 13.86-10.296-10.98,1.62-21.853,3.06-33.048,4.716-11.268,1.62-22.428,3.06-33.912,4.716z" fill="#d60000" fill-rule="evenodd"/>
 <path d="m387.647,116.856 1.477-15.336 24.479-.864 8.856-23.292c-6.12-.612-11.052-1.26-15.336-2.088-4.356-.828-7.056-1.944-10.044-2.952-3.024-1.044-5.652-2.376-7.884-3.6 .071,3.168-.396,5.796-1.549,8.316-1.26,2.412-2.844,4.428-5.291,6.192l-.324,32.472c1.873.36 3.745.756 5.616,1.152z" fill="#616161" fill-rule="evenodd"/>
 <path d="m389.412,86.184c9.792-1.403 16.884-2.627 21.852-3.527 4.86-.972 7.309-1.656 7.345-2.052l-.576-2.664c-2.7-.18-6.192-.18-10.62,0-4.464.108-9.72.396-15.912.864-.756.756-1.008,1.224-.9,1.8 .036.54.576.792 1.477,1.152l10.044-.864-12.096,2.34c-.182.971-.398,1.943-.614,2.951z" fill="#808080" fill-rule="evenodd"/>
 <path d="m390.024,93.564c3.384.288 7.163.396 11.195.611 4.068.181 8.244.181 12.96.288l-.576,3.24c-3.456.54-7.235.936-11.483,1.188-4.212.18-8.893.323-13.896.287-1.691-2.052-2.376-3.527-2.052-4.428 .252-.97 1.584-1.366 3.852-1.186z" fill="#808080" fill-rule="evenodd"/>
 <path d="m277.92,89.136 41.292,1.188 64.008-6.192-.288,31.284 18.864,2.34 8.568.612 .288-11.521 10.332-29.483c1.872.072 4.571.36 8.243.576 3.601.216 8.173.504 13.572.864l-19.439,28.043 .575,18.288c-8.964.973-21.708,2.845-38.663,5.616-17.064,2.809-37.729,6.264-62.82,10.908-1.404-.432-5.832-1.08-13.572-2.088-7.812-1.008-18.54-2.232-32.724-3.816 .576-15.515 1.152-31.067 1.764-46.619z" fill="#212121" fill-rule="evenodd"/>
 <path d="m169.956,67.32v-3.852c2.952.288 4.968,0 6.192-.864 1.152-.972 1.404-3.42.9-4.428-.54-1.152-.72-1.368-4.14-1.764-3.672-.432-13.68-1.332-17.1-.612-3.312.684-3.6,3.456-2.952,4.716 .468,1.08 3.78,1.872 6.192,2.376 2.304.504 5.004.648 7.956.576l.288,3.852h2.664z" fill-rule="evenodd"/>
 <path d="m239.58,67.896c-.72-2.484-.18-4.104 1.476-5.004 1.692-.828 4.68-.468 8.532-.288 3.708-.036 11.34-.216 13.572.576 2.124.792 1.979,2.268-.576,4.428-7.668.072-15.336.18-23.004.288z" fill-rule="evenodd" stroke="#000" stroke-miterlimit="10" stroke-width=".036"/>
 <path d="m319.248,108.432c-.216-1.836.144-3.348 1.08-4.5 .899-1.151 2.304-1.836 4.14-2.052 1.908-.216 3.42.145 4.536,1.044 1.152.9 1.836,2.232 2.052,4.104 .145,1.296.036,2.412-.323,3.312-.324.937-.9,1.656-1.692,2.232s-1.836.936-3.096,1.08c-1.297.144-2.376.036-3.24-.288-.9-.288-1.656-.864-2.304-1.692-.613-.828-1.009-1.908-1.153-3.24zm3.528-.396c.144,1.152.432,1.979.899,2.412 .504.468 1.116.647 1.836.54 .792-.072 1.332-.36 1.692-.9s.468-1.476.324-2.735c-.108-1.08-.433-1.837-.937-2.269-.468-.432-1.08-.612-1.836-.54-.684.072-1.224.396-1.62.937-.358.575-.502,1.403-.358,2.555zm17.82-.972c1.044.18 2.124.359 3.204.575-.107.864-.359,1.62-.72,2.269-.396.612-.9,1.152-1.512,1.512s-1.44.612-2.484.72c-1.224.145-2.268.108-3.096-.216-.828-.252-1.548-.792-2.232-1.655-.684-.828-1.116-1.944-1.26-3.385-.216-1.872.144-3.384 1.008-4.5 .9-1.115 2.269-1.8 4.068-1.979 1.439-.18 2.592-.036 3.491.468 .9.468 1.584,1.296 2.124,2.484-1.008.323-2.016.647-3.023,1.008-.145-.324-.288-.576-.432-.72-.217-.217-.469-.396-.792-.505-.288-.107-.612-.144-.973-.107-.792.072-1.368.468-1.728,1.152-.252.504-.324,1.26-.216,2.304 .144,1.26.432,2.088.863,2.52 .433.396 1.008.576 1.692.504s1.152-.323 1.476-.756c.29-.397.47-.973.542-1.693zm12.096,1.44-3.996.433c-.108.647-.217,1.296-.36,1.943l-3.6.433c.972-3.96 1.979-7.92 2.987-11.881l3.853-.432c1.836,3.601 3.708,7.236 5.58,10.872l-3.708.432c-.252-.575-.504-1.188-.756-1.8zm-1.045-2.376c-.539-1.296-1.115-2.628-1.691-3.96-.252,1.404-.504,2.809-.792,4.248 .828-.072 1.656-.18 2.483-.288zm5.293-7.74c1.151-.107 2.304-.252 3.491-.396 .324,2.844.648,5.688 1.009,8.568 1.8-.181 3.636-.396 5.472-.612 .107.899.216,1.836.324,2.771-2.988.324-5.977.685-9,1.044-.432-3.779-.864-7.559-1.296-11.375z" fill="#fb0f0c" fill-rule="evenodd"/>
 <path d="m368.6 96.48 0.757 11.88 13.859-1.26v-11.88l-14.616 1.26z" fill="#fb0f0c" fill-rule="evenodd"/>
 <path d="m314.93 102.42-20.556-1.008 0.504 11.376 21.276 1.512-1.224-11.88z" fill="#fb0f0c" fill-rule="evenodd" stroke="#000" stroke-miterlimit="10" stroke-width=".036"/>
 <path d="m296.32 116.53 20.268 1.476 66.816-7.416 0.504 3.456-65.593 8.424-21.527-1.008-0.468-4.932z" fill="#fb0f0c" fill-rule="evenodd"/>
 <path d="m232.776,67.68h41.4c5.4,1.188 9.792,3.6 13.32,7.38 3.456,3.744 5.832,8.568 7.668,14.904 1.692,6.229 2.844,14.04 3.023,22.464 .217,8.46-.18,19.152-2.016,27.36-2.052,7.992-6.3,15.48-9.972,20.521-3.78,4.787-7.092,7.128-12.456,8.964-5.616,1.728-12.276,2.088-19.98,2.195-7.632.145-16.128-.396-25.632-1.476-6.444-6.624-11.268-13.248-14.616-20.412-3.384-7.2-4.716-15.048-5.508-22.14-.9-7.272-.288-14.544.432-20.412 .684-5.868 1.98-9.9 3.744-14.473 1.62-4.68 2.916-9.215 6.372-13.319 3.493-4.248 8.101-7.956 14.221-11.556z" fill="#212121" fill-rule="evenodd"/>
 <path d="m265.32,159.156c-.108.324-5.58-4.212-7.668-7.092s-3.528-5.652-4.752-9.721c-1.368-4.283-2.664-10.044-3.06-15.048-.504-4.932-.504-9.756.144-14.616 .648-5.04 1.944-11.268 3.492-15.228 1.512-4.104 4.211-7.776 5.04-8.532 .576-.684-1.332,3.816-1.152,4.212 .18.252 2.628-4.319 2.34-2.628-.504,1.584-3.348,7.813-4.5,12.456-1.26,4.68-1.98,9.576-2.304,15.229-.324,5.544-.036,12.348.72,17.64 .72,5.112 1.872,9.18 3.888,13.176 1.98,3.889 7.632,9.54 7.812,10.152z" fill="#fff" fill-rule="evenodd"/>
 <path d="m280.692,79.812c.54,1.188 4.752,5.292 6.659,9.108 1.729,3.672 3.024,7.236 3.744,13.176 .612,5.977 1.261,14.328.288,21.996-1.044,7.561-5.76,18.9-6.516,22.896-.9,3.815 1.584-1.225 1.62,0-.036,1.08-2.017,7.236-1.477,6.66 .433-.792 3.132-6.12 4.645-10.584 1.476-4.572 3.384-9.828 4.212-15.912 .72-6.192.576-14.437.144-20.412-.647-6.156-1.764-11.124-3.348-15.336-1.584-4.248-4.356-7.488-5.94-9.432-1.727-2.088-4.499-3.312-4.031-2.16z" fill="#fff" fill-rule="evenodd"/>
 <path d="m259.38,106.704c-.072-1.08.324-3.6 1.188-5.616 .827-2.016 2.052-4.428 3.527-6.12 1.332-1.764 2.88-3.6 4.5-4.392 1.513-.937 3.204-1.08 4.933-1.008 1.619-.108 3.168,0 4.932.899 1.728.792 3.852,2.269 5.4,4.429 1.439,2.088 2.808,4.392 3.42,8.315 .432,3.853-.036,13.141-.288,14.652-.181,1.296-.468-3.42-1.008-6.229-.721-2.916-.9-8.1-2.916-10.836-2.124-2.699-6.084-5.256-9.252-5.328-3.276-.216-7.452,2.557-9.612,4.429-2.196,1.836-2.557,5.508-3.313,6.731-.863.974-1.511,1.046-1.511.074z" fill-rule="evenodd"/>
 <path d="m280.44,144.937c-1.08,1.332-2.412,2.808-3.996,3.743-1.62.9-3.673,1.332-5.616,1.297-2.196-.217-4.464-.828-6.517-2.412-2.052-1.62-4.14-3.889-5.436-7.345-1.404-3.779-2.664-9.432-2.808-14.04-.288-4.571 1.368-12.275 1.512-12.852 .072-.54-1.188,5.292-.72,9.432 .396,3.925 1.476,10.692 3.24,14.761 1.801,4.104 4.393,8.1 7.093,9.756 2.52,1.439 6.155.18 8.136-.324 1.8-.468 1.943-1.332 3.204-2.592 1.26-1.44 3.492-5.328 4.319-5.832 .648-.648.288,1.188-.107,2.304-.504,1.115-1.224,2.663-2.304,4.104z" fill-rule="evenodd"/>
 <path d="m285.156,134.208c-1.08,3.096-2.448,5.58-3.816,7.848-1.439,2.16-2.771,3.996-4.392,5.221-1.656,1.151-3.42,1.764-5.437,1.691-2.088-.071-4.536-.792-6.516-2.304-2.017-1.692-4.068-4.355-5.328-7.416-1.368-3.24-2.268-7.164-2.7-10.944-.54-3.888-.576-7.739-.108-11.556 .468-3.996 1.44-7.812 2.917-11.448 1.512-3.672 3.995-7.632 5.939-9.936 1.764-2.376 3.348-2.988 4.896-3.78 1.403-.972 2.592-1.296 4.14-1.116 1.512.217 3.348.864 5.112,2.521 1.655,1.548 3.744,3.636 5.004,6.804 1.188,3.132 1.728,7.776 2.195,11.844 .324,4.068.36,8.244.108,12.133-.358,3.85-1.078,7.198-2.014,10.438z" fill="#808080" fill-rule="evenodd"/>
 <path d="m268.524,144.756c1.691.469 3.312.108 5.004-.792 1.584-1.044 3.42-2.628 4.823-5.04 1.332-2.483 2.521-5.688 3.42-9.611 .757-4.068 1.404-9.504 1.404-14.076-.107-4.608-1.044-10.296-1.836-13.32-.864-3.06-1.944-3.96-3.384-5.04-1.656-1.224-4.248-2.016-5.832-1.8-1.62.144-2.808,1.08-3.708,2.808 1.728,1.225 2.916,2.557 4.104,4.536 1.08,1.8 1.801,3.96 2.305,6.624 .504,2.521.504,5.508.396,9.108-.252,3.527-.863,9.432-1.691,12.456-.9,2.952-1.729,3.636-3.313,5.508-1.764,1.872-5.688,5.04-6.228,5.328-.469-.072 2.376-3.061 3.527-4.536 1.08-1.477 2.16-1.836 3.097-3.708 .899-1.908 2.052-4.752 2.628-7.416 .504-2.808.468-5.94.576-8.712 .035-2.809.252-5.472-.181-7.848-.54-2.448-1.332-4.753-2.52-6.517-1.26-1.908-2.736-3.276-4.716-4.5 1.332-1.944 2.556-3.24 4.212-4.032 1.439-.936 3.348-1.008 5.04-.504 1.764.504 3.636,1.98 5.22,4.032 1.476,2.088 2.736,4.896 3.492,8.424 .576,3.456.647,7.884.504,11.916-.181,3.924-.792,8.101-1.404,11.557-.684,3.239-1.62,6.084-2.808,8.531-1.368,2.412-3.637,4.645-5.004,6.013-1.44,1.26-2.557,1.8-3.637,1.907-1.222.072-2.338-.36-3.49-1.296z" fill="#616161" fill-rule="evenodd"/>
 <path d="m265.392,110.448 .721-9.54c.684-.072 1.188.216 1.907,1.008 .685.756 1.188,1.872 1.908,3.492l-4.032,5.436-.504-.396z" fill="#212121" fill-rule="evenodd"/>
 <path d="m266.796,111.42 3.816-4.5c.468.468.756,1.116 1.008,1.8 .18.685.216,1.404.107,2.305l-3.636,3.815c.036-.863-.107-1.512-.288-2.088-.251-.612-.539-1.008-1.007-1.332z" fill="#212121" fill-rule="evenodd"/>
 <path d="m268.308,116.46 3.601-3.708c.359,1.512.432,3.096.504,4.608-.072,1.476-.145,3.023-.504,4.5l-3.816-2.7c.071-.9.143-1.8.215-2.7z" fill="#212121" fill-rule="evenodd"/>
 <path d="m267.912,120.168c-.108.648-.288,1.368-.396,2.017-.18.575-.432,1.224-.611,1.8l4.104,4.212c.145-.828.36-1.584.504-2.412s.252-1.692.324-2.592c-1.297-1.008-2.593-2.017-3.925-3.025z" fill="#212121" fill-rule="evenodd"/>
 <path d="m266.4,125.496 3.527,3.708c-.396,1.224-.864,2.16-1.403,3.204-.648.972-1.188,1.8-2.017,2.628l-1.62-8.244 1.513-1.296z" fill="#212121" fill-rule="evenodd"/>
 <path d="m263.808,127.477c.108,1.655.324,2.987.504,4.428 .181,1.332.324,2.483.576,3.6-.468.576-1.08.973-1.691,1.332-.612.252-1.368.468-2.124.504l-1.692-5.651 1.008-3.996c1.044.396 1.8.647 2.412.611 .575-.036.863-.361 1.007-.828z" fill="#212121" fill-rule="evenodd"/>
 <path d="m264.312,110.448 .181-8.64c-.54-.036-1.116.144-1.584.396-.504.252-.9.684-1.332,1.296l-1.477,3.636c.324.721.576,1.513.9,2.376 .288.864.504,1.692.792,2.628 .504-.359.972-.792 1.404-1.008 .36-.252.828-.576 1.116-.684z" fill="#212121" fill-rule="evenodd"/>
 <path d="m261.29 112.25-1.692-2.808-0.828 4.392 2.52-1.584z" fill="#212121" fill-rule="evenodd"/>
 <path d="m261.9,115.848c-.721.9-1.692,2.232-1.801,3.708-.18,1.368.396,3.853 1.188,4.536 .828.504 2.556-.216 3.528-1.332 .827-1.403 1.728-4.392 1.584-5.903-.288-1.584-1.98-2.412-2.7-2.628-.791-.181-1.259.683-1.799,1.619z" fill="#212121" fill-rule="evenodd"/>
 <path d="m262.692,117.576c-.54.396-.937,2.052-.9,2.88 .036.612.792,1.62 1.296,1.224 .432-.54 1.404-2.916 1.404-3.636-.18-.756-1.332-.864-1.8-.468z" fill="#808080" fill-rule="evenodd"/>
 <path d="m215.46,149.112c.576,1.728 1.872,4.14 4.032,7.523 2.124,3.276 5.076,7.38 8.856,12.313l30.816.576c-3.96-2.7-7.092-6.12-9.396-10.261-2.376-4.248-3.6-8.388-4.644-14.796-1.116-6.624-1.368-21.852-2.16-24.012-.864-2.088-2.016,10.476-3.312,11.448-1.476.72-4.14-8.532-5.364-6.372-1.332,2.196-1.044,16.956-2.34,19.404-1.404,2.231-4.356-5.58-5.796-5.364-1.476.252-1.188,4.968-2.88,6.66-1.8,1.549-4.356,2.557-7.812,2.881z" fill-rule="evenodd"/>
 <path d="m250.776,87.048c1.62-3.132 3.888-5.652 6.66-8.388 2.881-2.88 6.876-6.984 10.44-8.424 3.528-1.404 6.768-1.26 10.116-.144 3.168.972 9.036,5.724 8.712,6.084-.396.144-7.309-4.356-11.017-4.32-3.815,0-7.632,1.26-11.735,4.608-4.356,3.312-10.512,10.188-13.464,15.229-3.06,4.968-3.636,12.888-4.212,14.04-.612.792-.216-5.256.612-8.424 .72-3.241 2.016-7.129 3.888-10.261z" fill-rule="evenodd"/>
 <path d="m141.912,126.18c11.232.612 23.004,1.188 35.892,1.584 12.888.36 26.172.648 40.68.864l-2.304,7.236-28.656,7.523c-8.172-.396-18.612-.972-31.716-1.584-13.176-.684-28.44-1.548-46.62-2.447 3.42-.685 7.092-1.656 11.16-2.916 3.996-1.332 9.36-3.24 13.032-4.896 3.564-1.691 6.408-3.528 8.532-5.364z" fill="#212121" fill-rule="evenodd"/>
 <path d="m109.332,139.068c10.152.611 19.872,1.044 29.7,1.584 9.792.468 20.448.899 28.656,1.296 8.064.324 16.524.612 19.548,1.008 2.808.324.792,1.332-2.016,1.476-2.844.036-8.604-.359-14.652-.611-6.12-.324-13.212-.433-21.708-.864-8.784-.504-23.076-1.404-29.664-1.728-6.516-.324-9.612-.469-9.288-.288-.18-.613-.36-1.225-.576-1.873z" fill="#404040" fill-rule="evenodd"/>
 <path d="m220.248,111.132c-.792-.107-1.332.324-1.62,1.152-.396.828-.216,1.476-.432,3.888-.288,2.412-.396,7.416-1.296,10.008-1.08,2.448-2.34,3.061-4.608,4.465-2.484,1.367-6.048,2.159-9.288,3.348-3.312,1.008-7.236,2.016-9.828,2.88-2.556.72-4.392,1.368-5.652,2.34-1.404,1.008-2.232,2.304-2.484,3.888l33.912-11.844c.432-6.696.864-13.393 1.296-20.125z" fill="#fb0f0c" fill-rule="evenodd"/>
 <path d="m220.104,145.44c-4.14,1.188-8.388,2.34-13.176,3.456-4.896,1.151-11.592,2.916-15.228,3.203-3.6.145-5.436-.539-6.48-2.052-1.26-1.584-1.656-5.436-.612-7.235 1.008-1.944 1.98-2.124 6.804-4.032 4.788-1.944 17.172-5.148 21.744-7.38 4.356-2.376 3.996-3.204 5.04-6.372 .9-3.42.648-10.26 1.188-12.744 .504-2.448 1.548-3.636 2.016-1.62 .324,2.052.648,8.64.576,13.645-.108,4.859-.216,9.827-.72,15.336-.36,1.907-.756,3.851-1.152,5.795z" fill="#d60000" fill-rule="evenodd"/>
</svg>
